<mxfile host="app.diagrams.net" modified="2023-07-08T19:18:43.272Z" agent="Mozilla/5.0 (Windows NT 10.0; Win64; x64) AppleWebKit/537.36 (KHTML, like Gecko) Chrome/114.0.0.0 Safari/537.36" etag="uXBDuWAGkcBxFeVXshXH" version="21.6.1" type="github">
  <diagram name="Network-Layer" id="vktZMe8x5p6Vtm1BOrrI">
    <mxGraphModel dx="4633" dy="2607" grid="1" gridSize="10" guides="1" tooltips="1" connect="1" arrows="1" fold="1" page="1" pageScale="1" pageWidth="850" pageHeight="1100" math="0" shadow="0">
      <root>
        <mxCell id="0" />
        <mxCell id="1" parent="0" />
        <mxCell id="iuy7iuIk75hRO5tpLLpg-57" value="" style="fillColor=none;strokeColor=#CC0000;dashed=1;verticalAlign=top;fontStyle=0;fontColor=#5A6C86;whiteSpace=wrap;html=1;movable=1;resizable=1;rotatable=1;deletable=1;editable=1;locked=0;connectable=1;" parent="1" vertex="1">
          <mxGeometry x="-850" y="10" width="1437.5" height="520" as="geometry" />
        </mxCell>
        <mxCell id="iuy7iuIk75hRO5tpLLpg-70" value="" style="whiteSpace=wrap;html=1;aspect=fixed;" parent="1" vertex="1">
          <mxGeometry x="-647.5" y="210" width="240" height="240" as="geometry" />
        </mxCell>
        <mxCell id="PxYdW4Z8PxXyfOMz7trt-4" value="&lt;b&gt;&lt;font color=&quot;#000000&quot;&gt;CruddurVPC&lt;/font&gt;&lt;/b&gt;" style="points=[[0,0],[0.25,0],[0.5,0],[0.75,0],[1,0],[1,0.25],[1,0.5],[1,0.75],[1,1],[0.75,1],[0.5,1],[0.25,1],[0,1],[0,0.75],[0,0.5],[0,0.25]];outlineConnect=0;gradientColor=none;html=1;whiteSpace=wrap;fontSize=12;fontStyle=0;container=1;pointerEvents=0;collapsible=0;recursiveResize=0;shape=mxgraph.aws4.group;grIcon=mxgraph.aws4.group_vpc;strokeColor=#248814;fillColor=none;verticalAlign=top;align=left;spacingLeft=30;fontColor=#AAB7B8;dashed=0;rounded=0;" parent="1" vertex="1">
          <mxGeometry x="1125" y="70" width="500" height="490" as="geometry" />
        </mxCell>
        <mxCell id="PxYdW4Z8PxXyfOMz7trt-9" value="AZ1 us-east-1b" style="fillColor=none;strokeColor=#147EBA;dashed=1;verticalAlign=top;fontStyle=0;fontColor=#147EBA;whiteSpace=wrap;html=1;align=left;rounded=0;" parent="PxYdW4Z8PxXyfOMz7trt-4" vertex="1">
          <mxGeometry x="70" y="190" width="350" height="100" as="geometry" />
        </mxCell>
        <mxCell id="PxYdW4Z8PxXyfOMz7trt-10" value="SubPriv2" style="points=[[0,0],[0.25,0],[0.5,0],[0.75,0],[1,0],[1,0.25],[1,0.5],[1,0.75],[1,1],[0.75,1],[0.5,1],[0.25,1],[0,1],[0,0.75],[0,0.5],[0,0.25]];outlineConnect=0;gradientColor=none;html=1;whiteSpace=wrap;fontSize=12;fontStyle=0;container=1;pointerEvents=0;collapsible=0;recursiveResize=0;shape=mxgraph.aws4.group;grIcon=mxgraph.aws4.group_security_group;grStroke=0;strokeColor=#147EBA;fillColor=#E6F2F8;verticalAlign=top;align=left;spacingLeft=30;fontColor=#147EBA;dashed=0;rounded=0;" parent="PxYdW4Z8PxXyfOMz7trt-4" vertex="1">
          <mxGeometry x="270" y="220" width="140" height="50" as="geometry" />
        </mxCell>
        <mxCell id="PxYdW4Z8PxXyfOMz7trt-11" style="edgeStyle=orthogonalEdgeStyle;rounded=0;orthogonalLoop=1;jettySize=auto;html=1;exitX=0.5;exitY=1;exitDx=0;exitDy=0;" parent="PxYdW4Z8PxXyfOMz7trt-4" source="PxYdW4Z8PxXyfOMz7trt-9" target="PxYdW4Z8PxXyfOMz7trt-9" edge="1">
          <mxGeometry relative="1" as="geometry" />
        </mxCell>
        <mxCell id="PxYdW4Z8PxXyfOMz7trt-12" value="SubPub2" style="points=[[0,0],[0.25,0],[0.5,0],[0.75,0],[1,0],[1,0.25],[1,0.5],[1,0.75],[1,1],[0.75,1],[0.5,1],[0.25,1],[0,1],[0,0.75],[0,0.5],[0,0.25]];outlineConnect=0;gradientColor=none;html=1;whiteSpace=wrap;fontSize=12;fontStyle=0;container=1;pointerEvents=0;collapsible=0;recursiveResize=0;shape=mxgraph.aws4.group;grIcon=mxgraph.aws4.group_security_group;grStroke=0;strokeColor=#248814;fillColor=#E9F3E6;verticalAlign=top;align=left;spacingLeft=30;fontColor=#248814;dashed=0;rounded=0;" parent="PxYdW4Z8PxXyfOMz7trt-4" vertex="1">
          <mxGeometry x="100" y="220" width="130" height="50" as="geometry" />
        </mxCell>
        <mxCell id="PxYdW4Z8PxXyfOMz7trt-13" value="10.0.16.0/22" style="text;strokeColor=none;align=center;fillColor=none;html=1;verticalAlign=middle;whiteSpace=wrap;rounded=0;" parent="PxYdW4Z8PxXyfOMz7trt-4" vertex="1">
          <mxGeometry x="290" y="240" width="80" height="20" as="geometry" />
        </mxCell>
        <mxCell id="iuy7iuIk75hRO5tpLLpg-18" style="edgeStyle=orthogonalEdgeStyle;orthogonalLoop=1;jettySize=auto;html=1;elbow=vertical;startArrow=baseDash;startFill=0;endArrow=none;endFill=0;" parent="PxYdW4Z8PxXyfOMz7trt-4" edge="1">
          <mxGeometry relative="1" as="geometry">
            <mxPoint x="480" y="320" as="targetPoint" />
            <mxPoint x="170" y="270" as="sourcePoint" />
            <Array as="points">
              <mxPoint x="170" y="320" />
            </Array>
          </mxGeometry>
        </mxCell>
        <mxCell id="PxYdW4Z8PxXyfOMz7trt-14" value="10.0.4.0/22" style="text;strokeColor=none;align=center;fillColor=none;html=1;verticalAlign=middle;whiteSpace=wrap;rounded=0;" parent="PxYdW4Z8PxXyfOMz7trt-4" vertex="1">
          <mxGeometry x="120" y="240" width="80" height="20" as="geometry" />
        </mxCell>
        <mxCell id="PxYdW4Z8PxXyfOMz7trt-15" value="AZ1 us-east-1c" style="fillColor=none;strokeColor=#147EBA;dashed=1;verticalAlign=top;fontStyle=0;fontColor=#147EBA;whiteSpace=wrap;html=1;align=left;rounded=0;" parent="PxYdW4Z8PxXyfOMz7trt-4" vertex="1">
          <mxGeometry x="70" y="330" width="350" height="100" as="geometry" />
        </mxCell>
        <mxCell id="PxYdW4Z8PxXyfOMz7trt-16" value="SubPriv3" style="points=[[0,0],[0.25,0],[0.5,0],[0.75,0],[1,0],[1,0.25],[1,0.5],[1,0.75],[1,1],[0.75,1],[0.5,1],[0.25,1],[0,1],[0,0.75],[0,0.5],[0,0.25]];outlineConnect=0;gradientColor=none;html=1;whiteSpace=wrap;fontSize=12;fontStyle=0;container=1;pointerEvents=0;collapsible=0;recursiveResize=0;shape=mxgraph.aws4.group;grIcon=mxgraph.aws4.group_security_group;grStroke=0;strokeColor=#147EBA;fillColor=#E6F2F8;verticalAlign=top;align=left;spacingLeft=30;fontColor=#147EBA;dashed=0;rounded=0;" parent="PxYdW4Z8PxXyfOMz7trt-4" vertex="1">
          <mxGeometry x="270" y="360" width="140" height="50" as="geometry" />
        </mxCell>
        <mxCell id="PxYdW4Z8PxXyfOMz7trt-17" style="edgeStyle=orthogonalEdgeStyle;rounded=0;orthogonalLoop=1;jettySize=auto;html=1;exitX=0.5;exitY=1;exitDx=0;exitDy=0;" parent="PxYdW4Z8PxXyfOMz7trt-4" source="PxYdW4Z8PxXyfOMz7trt-15" target="PxYdW4Z8PxXyfOMz7trt-15" edge="1">
          <mxGeometry relative="1" as="geometry" />
        </mxCell>
        <mxCell id="PxYdW4Z8PxXyfOMz7trt-18" value="SubPub3" style="points=[[0,0],[0.25,0],[0.5,0],[0.75,0],[1,0],[1,0.25],[1,0.5],[1,0.75],[1,1],[0.75,1],[0.5,1],[0.25,1],[0,1],[0,0.75],[0,0.5],[0,0.25]];outlineConnect=0;gradientColor=none;html=1;whiteSpace=wrap;fontSize=12;fontStyle=0;container=1;pointerEvents=0;collapsible=0;recursiveResize=0;shape=mxgraph.aws4.group;grIcon=mxgraph.aws4.group_security_group;grStroke=0;strokeColor=#248814;fillColor=#E9F3E6;verticalAlign=top;align=left;spacingLeft=30;fontColor=#248814;dashed=0;rounded=0;" parent="PxYdW4Z8PxXyfOMz7trt-4" vertex="1">
          <mxGeometry x="100" y="360" width="130" height="50" as="geometry" />
        </mxCell>
        <mxCell id="iuy7iuIk75hRO5tpLLpg-15" style="edgeStyle=orthogonalEdgeStyle;orthogonalLoop=1;jettySize=auto;html=1;elbow=vertical;exitX=0.429;exitY=1;exitDx=0;exitDy=0;exitPerimeter=0;startArrow=baseDash;startFill=0;endArrow=none;endFill=0;" parent="PxYdW4Z8PxXyfOMz7trt-4" source="PxYdW4Z8PxXyfOMz7trt-16" edge="1">
          <mxGeometry relative="1" as="geometry">
            <mxPoint x="480" y="450" as="targetPoint" />
            <mxPoint x="330" y="420" as="sourcePoint" />
            <Array as="points">
              <mxPoint x="330" y="450" />
              <mxPoint x="480" y="450" />
            </Array>
          </mxGeometry>
        </mxCell>
        <mxCell id="PxYdW4Z8PxXyfOMz7trt-19" value="10.0.20.0/22" style="text;strokeColor=none;align=center;fillColor=none;html=1;verticalAlign=middle;whiteSpace=wrap;rounded=0;" parent="PxYdW4Z8PxXyfOMz7trt-4" vertex="1">
          <mxGeometry x="290" y="380" width="80" height="20" as="geometry" />
        </mxCell>
        <mxCell id="PxYdW4Z8PxXyfOMz7trt-20" value="10.0.8.0/22" style="text;strokeColor=none;align=center;fillColor=none;html=1;verticalAlign=middle;whiteSpace=wrap;rounded=0;" parent="PxYdW4Z8PxXyfOMz7trt-4" vertex="1">
          <mxGeometry x="120" y="380" width="80" height="20" as="geometry" />
        </mxCell>
        <mxCell id="PxYdW4Z8PxXyfOMz7trt-31" value="Local(10.0.0.0/32)" style="text;strokeColor=none;align=center;fillColor=none;html=1;verticalAlign=middle;whiteSpace=wrap;rounded=0;" parent="PxYdW4Z8PxXyfOMz7trt-4" vertex="1">
          <mxGeometry x="30" y="20" width="100" height="30" as="geometry" />
        </mxCell>
        <mxCell id="PxYdW4Z8PxXyfOMz7trt-36" style="rounded=0;orthogonalLoop=1;jettySize=auto;html=1;startArrow=classic;startFill=1;endArrow=none;endFill=0;" parent="PxYdW4Z8PxXyfOMz7trt-4" source="PxYdW4Z8PxXyfOMz7trt-23" edge="1">
          <mxGeometry relative="1" as="geometry">
            <mxPoint x="340" y="-80" as="targetPoint" />
          </mxGeometry>
        </mxCell>
        <mxCell id="iuy7iuIk75hRO5tpLLpg-13" style="edgeStyle=orthogonalEdgeStyle;orthogonalLoop=1;jettySize=auto;html=1;elbow=vertical;endArrow=baseDash;endFill=0;startArrow=classic;startFill=1;" parent="PxYdW4Z8PxXyfOMz7trt-4" source="PxYdW4Z8PxXyfOMz7trt-23" target="PxYdW4Z8PxXyfOMz7trt-18" edge="1">
          <mxGeometry relative="1" as="geometry">
            <Array as="points">
              <mxPoint x="480" y="10" />
              <mxPoint x="480" y="470" />
              <mxPoint x="170" y="470" />
            </Array>
          </mxGeometry>
        </mxCell>
        <mxCell id="PxYdW4Z8PxXyfOMz7trt-23" value="" style="outlineConnect=0;fontColor=#232F3E;gradientColor=none;fillColor=#4D27AA;strokeColor=none;dashed=0;verticalLabelPosition=bottom;verticalAlign=top;align=center;html=1;fontSize=12;fontStyle=0;aspect=fixed;pointerEvents=1;shape=mxgraph.aws4.router;rounded=0;" parent="PxYdW4Z8PxXyfOMz7trt-4" vertex="1">
          <mxGeometry x="316" y="-20" width="44" height="44" as="geometry" />
        </mxCell>
        <mxCell id="iuy7iuIk75hRO5tpLLpg-17" style="edgeStyle=orthogonalEdgeStyle;orthogonalLoop=1;jettySize=auto;html=1;elbow=vertical;exitX=0.429;exitY=1;exitDx=0;exitDy=0;exitPerimeter=0;startArrow=baseDash;startFill=0;endArrow=none;endFill=0;" parent="PxYdW4Z8PxXyfOMz7trt-4" edge="1">
          <mxGeometry relative="1" as="geometry">
            <mxPoint x="480" y="310" as="targetPoint" />
            <mxPoint x="330" y="270" as="sourcePoint" />
            <Array as="points">
              <mxPoint x="330" y="310" />
            </Array>
          </mxGeometry>
        </mxCell>
        <mxCell id="iuy7iuIk75hRO5tpLLpg-19" style="edgeStyle=orthogonalEdgeStyle;orthogonalLoop=1;jettySize=auto;html=1;elbow=vertical;startArrow=baseDash;startFill=0;endArrow=none;endFill=0;" parent="PxYdW4Z8PxXyfOMz7trt-4" edge="1">
          <mxGeometry relative="1" as="geometry">
            <mxPoint x="480" y="180" as="targetPoint" />
            <mxPoint x="170" y="130" as="sourcePoint" />
            <Array as="points">
              <mxPoint x="170" y="180" />
            </Array>
          </mxGeometry>
        </mxCell>
        <mxCell id="PxYdW4Z8PxXyfOMz7trt-1" value="AZ1 us-east-1a" style="fillColor=none;strokeColor=#147EBA;dashed=1;verticalAlign=top;fontStyle=0;fontColor=#147EBA;whiteSpace=wrap;html=1;align=left;rounded=0;" parent="PxYdW4Z8PxXyfOMz7trt-4" vertex="1">
          <mxGeometry x="70" y="50" width="350" height="100" as="geometry" />
        </mxCell>
        <mxCell id="PxYdW4Z8PxXyfOMz7trt-2" value="SubPriv1" style="points=[[0,0],[0.25,0],[0.5,0],[0.75,0],[1,0],[1,0.25],[1,0.5],[1,0.75],[1,1],[0.75,1],[0.5,1],[0.25,1],[0,1],[0,0.75],[0,0.5],[0,0.25]];outlineConnect=0;gradientColor=none;html=1;whiteSpace=wrap;fontSize=12;fontStyle=0;container=1;pointerEvents=0;collapsible=0;recursiveResize=0;shape=mxgraph.aws4.group;grIcon=mxgraph.aws4.group_security_group;grStroke=0;strokeColor=#147EBA;fillColor=#E6F2F8;verticalAlign=top;align=left;spacingLeft=30;fontColor=#147EBA;dashed=0;rounded=0;" parent="PxYdW4Z8PxXyfOMz7trt-4" vertex="1">
          <mxGeometry x="270" y="80" width="140" height="50" as="geometry" />
        </mxCell>
        <mxCell id="PxYdW4Z8PxXyfOMz7trt-3" style="edgeStyle=orthogonalEdgeStyle;rounded=0;orthogonalLoop=1;jettySize=auto;html=1;exitX=0.5;exitY=1;exitDx=0;exitDy=0;" parent="PxYdW4Z8PxXyfOMz7trt-4" source="PxYdW4Z8PxXyfOMz7trt-1" target="PxYdW4Z8PxXyfOMz7trt-1" edge="1">
          <mxGeometry relative="1" as="geometry" />
        </mxCell>
        <mxCell id="PxYdW4Z8PxXyfOMz7trt-5" value="SubPub1" style="points=[[0,0],[0.25,0],[0.5,0],[0.75,0],[1,0],[1,0.25],[1,0.5],[1,0.75],[1,1],[0.75,1],[0.5,1],[0.25,1],[0,1],[0,0.75],[0,0.5],[0,0.25]];outlineConnect=0;gradientColor=none;html=1;whiteSpace=wrap;fontSize=12;fontStyle=0;container=1;pointerEvents=0;collapsible=0;recursiveResize=0;shape=mxgraph.aws4.group;grIcon=mxgraph.aws4.group_security_group;grStroke=0;strokeColor=#248814;fillColor=#E9F3E6;verticalAlign=top;align=left;spacingLeft=30;fontColor=#248814;dashed=0;rounded=0;" parent="PxYdW4Z8PxXyfOMz7trt-4" vertex="1">
          <mxGeometry x="90" y="80" width="130" height="50" as="geometry" />
        </mxCell>
        <mxCell id="PxYdW4Z8PxXyfOMz7trt-6" value="10.0.12.0/22" style="text;strokeColor=none;align=center;fillColor=none;html=1;verticalAlign=middle;whiteSpace=wrap;rounded=0;" parent="PxYdW4Z8PxXyfOMz7trt-4" vertex="1">
          <mxGeometry x="280" y="100" width="80" height="20" as="geometry" />
        </mxCell>
        <mxCell id="PxYdW4Z8PxXyfOMz7trt-8" value="10.0.0.0/22" style="text;strokeColor=none;align=center;fillColor=none;html=1;verticalAlign=middle;whiteSpace=wrap;rounded=0;" parent="PxYdW4Z8PxXyfOMz7trt-4" vertex="1">
          <mxGeometry x="120" y="100" width="80" height="20" as="geometry" />
        </mxCell>
        <mxCell id="iuy7iuIk75hRO5tpLLpg-20" style="edgeStyle=orthogonalEdgeStyle;orthogonalLoop=1;jettySize=auto;html=1;elbow=vertical;exitX=0.429;exitY=1;exitDx=0;exitDy=0;exitPerimeter=0;startArrow=baseDash;startFill=0;endArrow=none;endFill=0;" parent="PxYdW4Z8PxXyfOMz7trt-4" edge="1">
          <mxGeometry relative="1" as="geometry">
            <mxPoint x="480" y="170" as="targetPoint" />
            <mxPoint x="330" y="130" as="sourcePoint" />
            <Array as="points">
              <mxPoint x="330" y="170" />
            </Array>
          </mxGeometry>
        </mxCell>
        <mxCell id="iuy7iuIk75hRO5tpLLpg-21" value="Subnet Direction Association" style="text;strokeColor=none;align=center;fillColor=none;html=1;verticalAlign=middle;whiteSpace=wrap;rounded=0;" parent="PxYdW4Z8PxXyfOMz7trt-4" vertex="1">
          <mxGeometry x="370" y="10" width="100" height="30" as="geometry" />
        </mxCell>
        <mxCell id="PxYdW4Z8PxXyfOMz7trt-25" style="edgeStyle=orthogonalEdgeStyle;rounded=0;orthogonalLoop=1;jettySize=auto;html=1;startArrow=classic;startFill=1;" parent="1" source="PxYdW4Z8PxXyfOMz7trt-21" target="PxYdW4Z8PxXyfOMz7trt-24" edge="1">
          <mxGeometry relative="1" as="geometry" />
        </mxCell>
        <mxCell id="PxYdW4Z8PxXyfOMz7trt-21" value="" style="outlineConnect=0;fontColor=#232F3E;gradientColor=none;fillColor=#4D27AA;strokeColor=none;dashed=0;verticalLabelPosition=bottom;verticalAlign=top;align=center;html=1;fontSize=12;fontStyle=0;aspect=fixed;pointerEvents=1;shape=mxgraph.aws4.internet_gateway;rounded=0;" parent="1" vertex="1">
          <mxGeometry x="1135" y="-60" width="50" height="50" as="geometry" />
        </mxCell>
        <mxCell id="PxYdW4Z8PxXyfOMz7trt-27" style="edgeStyle=orthogonalEdgeStyle;rounded=0;orthogonalLoop=1;jettySize=auto;html=1;startArrow=classic;startFill=1;endArrow=none;endFill=0;" parent="1" source="PxYdW4Z8PxXyfOMz7trt-24" edge="1">
          <mxGeometry relative="1" as="geometry">
            <mxPoint x="1405" y="-35" as="targetPoint" />
          </mxGeometry>
        </mxCell>
        <mxCell id="PxYdW4Z8PxXyfOMz7trt-24" value="" style="outlineConnect=0;fontColor=#232F3E;gradientColor=none;fillColor=#4D27AA;strokeColor=none;dashed=0;verticalLabelPosition=bottom;verticalAlign=top;align=center;html=1;fontSize=12;fontStyle=0;aspect=fixed;pointerEvents=1;shape=mxgraph.aws4.route_table;rounded=0;" parent="1" vertex="1">
          <mxGeometry x="1285" y="-60" width="51.32" height="50" as="geometry" />
        </mxCell>
        <mxCell id="PxYdW4Z8PxXyfOMz7trt-30" value="Local(10.0.0.0/32)" style="text;strokeColor=none;align=center;fillColor=none;html=1;verticalAlign=middle;whiteSpace=wrap;rounded=0;" parent="1" vertex="1">
          <mxGeometry x="1405" y="-50" width="100" height="30" as="geometry" />
        </mxCell>
        <mxCell id="PxYdW4Z8PxXyfOMz7trt-32" value="CruddurIGW" style="text;strokeColor=none;align=center;fillColor=none;html=1;verticalAlign=middle;whiteSpace=wrap;rounded=0;" parent="1" vertex="1">
          <mxGeometry x="1110" y="-10" width="100" height="30" as="geometry" />
        </mxCell>
        <mxCell id="PxYdW4Z8PxXyfOMz7trt-33" value="0.0.0.0/32" style="text;strokeColor=none;align=center;fillColor=none;html=1;verticalAlign=middle;whiteSpace=wrap;rounded=0;" parent="1" vertex="1">
          <mxGeometry x="1195" y="-70" width="100" height="30" as="geometry" />
        </mxCell>
        <mxCell id="PxYdW4Z8PxXyfOMz7trt-34" value="CruddurRT" style="text;strokeColor=none;align=center;fillColor=none;html=1;verticalAlign=middle;whiteSpace=wrap;rounded=0;" parent="1" vertex="1">
          <mxGeometry x="1260.6599999999999" y="-10" width="100" height="30" as="geometry" />
        </mxCell>
        <mxCell id="iuy7iuIk75hRO5tpLLpg-23" value="" style="sketch=0;outlineConnect=0;fontColor=#232F3E;gradientColor=none;fillColor=#B0084D;strokeColor=none;dashed=0;verticalLabelPosition=bottom;verticalAlign=top;align=center;html=1;fontSize=12;fontStyle=0;aspect=fixed;pointerEvents=1;shape=mxgraph.aws4.template;" parent="1" vertex="1">
          <mxGeometry x="-457.5" y="40" width="50" height="60" as="geometry" />
        </mxCell>
        <mxCell id="iuy7iuIk75hRO5tpLLpg-25" value="CICD&amp;nbsp;" style="text;strokeColor=none;align=center;fillColor=none;html=1;verticalAlign=middle;whiteSpace=wrap;rounded=0;" parent="1" vertex="1">
          <mxGeometry x="-482.5" y="100" width="100" height="30" as="geometry" />
        </mxCell>
        <mxCell id="iuy7iuIk75hRO5tpLLpg-27" value="" style="sketch=0;outlineConnect=0;fontColor=#232F3E;gradientColor=none;fillColor=#B0084D;strokeColor=none;dashed=0;verticalLabelPosition=bottom;verticalAlign=top;align=center;html=1;fontSize=12;fontStyle=0;aspect=fixed;pointerEvents=1;shape=mxgraph.aws4.template;" parent="1" vertex="1">
          <mxGeometry x="-232.5" y="60" width="50" height="60" as="geometry" />
        </mxCell>
        <mxCell id="iuy7iuIk75hRO5tpLLpg-28" value="Ddb" style="text;strokeColor=none;align=center;fillColor=none;html=1;verticalAlign=middle;whiteSpace=wrap;rounded=0;" parent="1" vertex="1">
          <mxGeometry x="-257.5" y="120" width="100" height="30" as="geometry" />
        </mxCell>
        <mxCell id="iuy7iuIk75hRO5tpLLpg-40" value="" style="edgeStyle=orthogonalEdgeStyle;orthogonalLoop=1;jettySize=auto;html=1;elbow=vertical;startArrow=classic;startFill=1;" parent="1" source="iuy7iuIk75hRO5tpLLpg-31" target="iuy7iuIk75hRO5tpLLpg-38" edge="1">
          <mxGeometry relative="1" as="geometry" />
        </mxCell>
        <mxCell id="-sUA6bPn3c4p7C3POsAI-37" style="edgeStyle=orthogonalEdgeStyle;rounded=0;orthogonalLoop=1;jettySize=auto;html=1;entryX=0;entryY=0.25;entryDx=0;entryDy=0;" parent="1" source="iuy7iuIk75hRO5tpLLpg-31" target="-sUA6bPn3c4p7C3POsAI-22" edge="1">
          <mxGeometry relative="1" as="geometry" />
        </mxCell>
        <mxCell id="iuy7iuIk75hRO5tpLLpg-31" value="" style="sketch=0;outlineConnect=0;fontColor=#232F3E;gradientColor=none;fillColor=#B0084D;strokeColor=none;dashed=0;verticalLabelPosition=bottom;verticalAlign=top;align=center;html=1;fontSize=12;fontStyle=0;aspect=fixed;pointerEvents=1;shape=mxgraph.aws4.template;" parent="1" vertex="1">
          <mxGeometry x="-382.5" y="240" width="50" height="60" as="geometry" />
        </mxCell>
        <mxCell id="iuy7iuIk75hRO5tpLLpg-32" value="Cluster" style="text;strokeColor=none;align=center;fillColor=none;html=1;verticalAlign=middle;whiteSpace=wrap;rounded=0;" parent="1" vertex="1">
          <mxGeometry x="-407.5" y="300" width="100" height="30" as="geometry" />
        </mxCell>
        <mxCell id="iuy7iuIk75hRO5tpLLpg-43" value="" style="edgeStyle=orthogonalEdgeStyle;orthogonalLoop=1;jettySize=auto;html=1;elbow=vertical;startArrow=none;startFill=0;endArrow=classic;endFill=1;entryX=0;entryY=0.5;entryDx=0;entryDy=0;" parent="1" source="iuy7iuIk75hRO5tpLLpg-33" target="iuy7iuIk75hRO5tpLLpg-37" edge="1">
          <mxGeometry relative="1" as="geometry" />
        </mxCell>
        <mxCell id="iuy7iuIk75hRO5tpLLpg-33" value="" style="sketch=0;outlineConnect=0;fontColor=#232F3E;gradientColor=none;fillColor=#B0084D;strokeColor=none;dashed=0;verticalLabelPosition=bottom;verticalAlign=top;align=center;html=1;fontSize=12;fontStyle=0;aspect=fixed;pointerEvents=1;shape=mxgraph.aws4.template;" parent="1" vertex="1">
          <mxGeometry x="-732.5" y="240" width="50" height="60" as="geometry" />
        </mxCell>
        <mxCell id="iuy7iuIk75hRO5tpLLpg-34" value="Networking" style="text;strokeColor=none;align=center;fillColor=none;html=1;verticalAlign=middle;whiteSpace=wrap;rounded=0;" parent="1" vertex="1">
          <mxGeometry x="-757.5" y="300" width="100" height="30" as="geometry" />
        </mxCell>
        <mxCell id="iuy7iuIk75hRO5tpLLpg-41" value="" style="edgeStyle=orthogonalEdgeStyle;orthogonalLoop=1;jettySize=auto;html=1;elbow=vertical;startArrow=none;startFill=0;" parent="1" source="iuy7iuIk75hRO5tpLLpg-37" target="iuy7iuIk75hRO5tpLLpg-31" edge="1">
          <mxGeometry relative="1" as="geometry" />
        </mxCell>
        <mxCell id="iuy7iuIk75hRO5tpLLpg-37" value="" style="rounded=1;whiteSpace=wrap;html=1;" parent="1" vertex="1">
          <mxGeometry x="-617.5" y="255" width="180" height="30" as="geometry" />
        </mxCell>
        <mxCell id="iuy7iuIk75hRO5tpLLpg-38" value="VpcID" style="text;strokeColor=none;align=center;fillColor=none;html=1;verticalAlign=middle;whiteSpace=wrap;rounded=0;" parent="1" vertex="1">
          <mxGeometry x="-582.5" y="255" width="100" height="30" as="geometry" />
        </mxCell>
        <mxCell id="iuy7iuIk75hRO5tpLLpg-44" value="" style="rounded=1;whiteSpace=wrap;html=1;" parent="1" vertex="1">
          <mxGeometry x="-617.5" y="285" width="180" height="30" as="geometry" />
        </mxCell>
        <mxCell id="iuy7iuIk75hRO5tpLLpg-45" value="VpcCidrBlock" style="text;strokeColor=none;align=center;fillColor=none;html=1;verticalAlign=middle;whiteSpace=wrap;rounded=0;" parent="1" vertex="1">
          <mxGeometry x="-582.5" y="285" width="100" height="30" as="geometry" />
        </mxCell>
        <mxCell id="iuy7iuIk75hRO5tpLLpg-46" value="" style="rounded=1;whiteSpace=wrap;html=1;" parent="1" vertex="1">
          <mxGeometry x="-617.5" y="315" width="180" height="30" as="geometry" />
        </mxCell>
        <mxCell id="iuy7iuIk75hRO5tpLLpg-47" value="SubnetsCidrBlocks" style="text;strokeColor=none;align=center;fillColor=none;html=1;verticalAlign=middle;whiteSpace=wrap;rounded=0;" parent="1" vertex="1">
          <mxGeometry x="-582.5" y="315" width="100" height="30" as="geometry" />
        </mxCell>
        <mxCell id="j5pndexK8RBlIthqiexm-4" style="edgeStyle=orthogonalEdgeStyle;rounded=0;orthogonalLoop=1;jettySize=auto;html=1;" parent="1" source="iuy7iuIk75hRO5tpLLpg-48" edge="1">
          <mxGeometry relative="1" as="geometry">
            <mxPoint x="-397.5" y="270" as="targetPoint" />
          </mxGeometry>
        </mxCell>
        <mxCell id="iuy7iuIk75hRO5tpLLpg-48" value="" style="rounded=1;whiteSpace=wrap;html=1;" parent="1" vertex="1">
          <mxGeometry x="-617.5" y="345" width="180" height="30" as="geometry" />
        </mxCell>
        <mxCell id="iuy7iuIk75hRO5tpLLpg-49" value="PublicSubnets" style="text;strokeColor=none;align=center;fillColor=none;html=1;verticalAlign=middle;whiteSpace=wrap;rounded=0;" parent="1" vertex="1">
          <mxGeometry x="-582.5" y="345" width="100" height="30" as="geometry" />
        </mxCell>
        <mxCell id="iuy7iuIk75hRO5tpLLpg-50" value="" style="rounded=1;whiteSpace=wrap;html=1;" parent="1" vertex="1">
          <mxGeometry x="-617.5" y="375" width="180" height="30" as="geometry" />
        </mxCell>
        <mxCell id="iuy7iuIk75hRO5tpLLpg-51" value="PrivateSubnets" style="text;strokeColor=none;align=center;fillColor=none;html=1;verticalAlign=middle;whiteSpace=wrap;rounded=0;" parent="1" vertex="1">
          <mxGeometry x="-582.5" y="375" width="100" height="30" as="geometry" />
        </mxCell>
        <mxCell id="iuy7iuIk75hRO5tpLLpg-66" style="edgeStyle=orthogonalEdgeStyle;orthogonalLoop=1;jettySize=auto;html=1;elbow=vertical;startArrow=classic;startFill=1;" parent="1" source="iuy7iuIk75hRO5tpLLpg-65" edge="1">
          <mxGeometry relative="1" as="geometry">
            <mxPoint x="-797.5" y="279" as="targetPoint" />
          </mxGeometry>
        </mxCell>
        <mxCell id="iuy7iuIk75hRO5tpLLpg-65" value="" style="sketch=0;outlineConnect=0;fontColor=#232F3E;gradientColor=none;fillColor=#3F8624;strokeColor=none;dashed=0;verticalLabelPosition=bottom;verticalAlign=top;align=center;html=1;fontSize=12;fontStyle=0;aspect=fixed;pointerEvents=1;shape=mxgraph.aws4.bucket_with_objects;" parent="1" vertex="1">
          <mxGeometry x="-1037.5" y="240" width="75" height="78" as="geometry" />
        </mxCell>
        <mxCell id="iuy7iuIk75hRO5tpLLpg-67" value="cfn-artifacts" style="text;strokeColor=none;align=center;fillColor=none;html=1;verticalAlign=middle;whiteSpace=wrap;rounded=0;" parent="1" vertex="1">
          <mxGeometry x="-1050" y="320" width="100" height="30" as="geometry" />
        </mxCell>
        <mxCell id="iuy7iuIk75hRO5tpLLpg-69" value="All CFN uploads are stored in here" style="text;strokeColor=none;align=center;fillColor=none;html=1;verticalAlign=middle;whiteSpace=wrap;rounded=0;" parent="1" vertex="1">
          <mxGeometry x="-937.5" y="230" width="100" height="30" as="geometry" />
        </mxCell>
        <mxCell id="iuy7iuIk75hRO5tpLLpg-62" value="" style="group" parent="1" vertex="1" connectable="0">
          <mxGeometry x="-797.5" y="60" width="35" height="39" as="geometry" />
        </mxCell>
        <mxCell id="iuy7iuIk75hRO5tpLLpg-58" value="" style="whiteSpace=wrap;html=1;aspect=fixed;fillColor=#a20025;fontColor=#ffffff;strokeColor=#6F0000;" parent="iuy7iuIk75hRO5tpLLpg-62" vertex="1">
          <mxGeometry width="32.93460925039873" height="32.93460925039873" as="geometry" />
        </mxCell>
        <mxCell id="iuy7iuIk75hRO5tpLLpg-59" value="" style="sketch=0;outlineConnect=0;dashed=0;verticalLabelPosition=bottom;verticalAlign=top;align=center;html=1;fontSize=12;fontStyle=0;aspect=fixed;pointerEvents=1;shape=mxgraph.aws4.stack;fillColor=#FFFFFF;fontColor=#ffffff;strokeColor=#6F0000;" parent="iuy7iuIk75hRO5tpLLpg-62" vertex="1">
          <mxGeometry x="4.02500000000002" y="4.875" width="25.359649122807017" height="24.70095693779904" as="geometry" />
        </mxCell>
        <mxCell id="iuy7iuIk75hRO5tpLLpg-60" value="&lt;font style=&quot;font-size: 12px;&quot;&gt;&lt;b style=&quot;&quot;&gt;Cruddur Stack&lt;/b&gt;&lt;/font&gt;" style="text;strokeColor=none;align=left;fillColor=none;html=1;verticalAlign=middle;whiteSpace=wrap;rounded=0;" parent="1" vertex="1">
          <mxGeometry x="-762.5" y="64.875" width="87.5" height="29.25" as="geometry" />
        </mxCell>
        <mxCell id="iuy7iuIk75hRO5tpLLpg-79" value="&lt;b&gt;Networking/ Outputs exports&lt;/b&gt;" style="text;strokeColor=none;align=center;fillColor=none;html=1;verticalAlign=middle;whiteSpace=wrap;rounded=0;" parent="1" vertex="1">
          <mxGeometry x="-637.5" y="210" width="100" height="30" as="geometry" />
        </mxCell>
        <mxCell id="j5pndexK8RBlIthqiexm-2" value="" style="rounded=1;whiteSpace=wrap;html=1;" parent="1" vertex="1">
          <mxGeometry x="-617.5" y="410" width="180" height="30" as="geometry" />
        </mxCell>
        <mxCell id="j5pndexK8RBlIthqiexm-3" value="Availability Zones" style="text;strokeColor=none;align=center;fillColor=none;html=1;verticalAlign=middle;whiteSpace=wrap;rounded=0;" parent="1" vertex="1">
          <mxGeometry x="-582.5" y="410" width="100" height="30" as="geometry" />
        </mxCell>
        <mxCell id="-sUA6bPn3c4p7C3POsAI-1" value="" style="sketch=0;outlineConnect=0;fontColor=#232F3E;gradientColor=none;fillColor=#B0084D;strokeColor=none;dashed=0;verticalLabelPosition=bottom;verticalAlign=top;align=center;html=1;fontSize=12;fontStyle=0;aspect=fixed;pointerEvents=1;shape=mxgraph.aws4.template;" parent="1" vertex="1">
          <mxGeometry x="150" y="360" width="50" height="60" as="geometry" />
        </mxCell>
        <mxCell id="-sUA6bPn3c4p7C3POsAI-2" value="Service&lt;br&gt;(Backend)" style="text;strokeColor=none;align=center;fillColor=none;html=1;verticalAlign=middle;whiteSpace=wrap;rounded=0;" parent="1" vertex="1">
          <mxGeometry x="130" y="420" width="100" height="30" as="geometry" />
        </mxCell>
        <mxCell id="-sUA6bPn3c4p7C3POsAI-3" value="" style="sketch=0;outlineConnect=0;fontColor=#232F3E;gradientColor=none;fillColor=#B0084D;strokeColor=none;dashed=0;verticalLabelPosition=bottom;verticalAlign=top;align=center;html=1;fontSize=12;fontStyle=0;aspect=fixed;pointerEvents=1;shape=mxgraph.aws4.template;" parent="1" vertex="1">
          <mxGeometry x="150" y="210" width="50" height="60" as="geometry" />
        </mxCell>
        <mxCell id="-sUA6bPn3c4p7C3POsAI-4" value="Db(RDS)" style="text;strokeColor=none;align=center;fillColor=none;html=1;verticalAlign=middle;whiteSpace=wrap;rounded=0;" parent="1" vertex="1">
          <mxGeometry x="130" y="270" width="100" height="30" as="geometry" />
        </mxCell>
        <mxCell id="-sUA6bPn3c4p7C3POsAI-22" value="" style="whiteSpace=wrap;html=1;aspect=fixed;" parent="1" vertex="1">
          <mxGeometry x="-257.5" y="210" width="240" height="240" as="geometry" />
        </mxCell>
        <mxCell id="-sUA6bPn3c4p7C3POsAI-39" style="edgeStyle=orthogonalEdgeStyle;rounded=0;orthogonalLoop=1;jettySize=auto;html=1;" parent="1" source="-sUA6bPn3c4p7C3POsAI-23" target="-sUA6bPn3c4p7C3POsAI-3" edge="1">
          <mxGeometry relative="1" as="geometry" />
        </mxCell>
        <mxCell id="-sUA6bPn3c4p7C3POsAI-41" style="edgeStyle=elbowEdgeStyle;rounded=0;orthogonalLoop=1;jettySize=auto;html=1;" parent="1" source="-sUA6bPn3c4p7C3POsAI-23" edge="1">
          <mxGeometry relative="1" as="geometry">
            <mxPoint x="140" y="370" as="targetPoint" />
          </mxGeometry>
        </mxCell>
        <mxCell id="-sUA6bPn3c4p7C3POsAI-23" value="" style="rounded=1;whiteSpace=wrap;html=1;" parent="1" vertex="1">
          <mxGeometry x="-227.5" y="255" width="180" height="30" as="geometry" />
        </mxCell>
        <mxCell id="-sUA6bPn3c4p7C3POsAI-24" value="VpcID" style="text;strokeColor=none;align=center;fillColor=none;html=1;verticalAlign=middle;whiteSpace=wrap;rounded=0;" parent="1" vertex="1">
          <mxGeometry x="-192.5" y="255" width="100" height="30" as="geometry" />
        </mxCell>
        <mxCell id="-sUA6bPn3c4p7C3POsAI-44" style="edgeStyle=elbowEdgeStyle;rounded=0;orthogonalLoop=1;jettySize=auto;html=1;" parent="1" source="-sUA6bPn3c4p7C3POsAI-25" edge="1">
          <mxGeometry relative="1" as="geometry">
            <mxPoint x="140" y="260.0000000000002" as="targetPoint" />
          </mxGeometry>
        </mxCell>
        <mxCell id="-sUA6bPn3c4p7C3POsAI-45" style="edgeStyle=elbowEdgeStyle;rounded=0;orthogonalLoop=1;jettySize=auto;html=1;" parent="1" source="-sUA6bPn3c4p7C3POsAI-25" edge="1">
          <mxGeometry relative="1" as="geometry">
            <mxPoint x="140" y="390" as="targetPoint" />
          </mxGeometry>
        </mxCell>
        <mxCell id="-sUA6bPn3c4p7C3POsAI-25" value="" style="rounded=1;whiteSpace=wrap;html=1;" parent="1" vertex="1">
          <mxGeometry x="-227.5" y="285" width="180" height="30" as="geometry" />
        </mxCell>
        <mxCell id="-sUA6bPn3c4p7C3POsAI-26" value="ServiceSecurityGroupID" style="text;strokeColor=none;align=center;fillColor=none;html=1;verticalAlign=middle;whiteSpace=wrap;rounded=0;" parent="1" vertex="1">
          <mxGeometry x="-192.5" y="285" width="100" height="30" as="geometry" />
        </mxCell>
        <mxCell id="-sUA6bPn3c4p7C3POsAI-46" style="edgeStyle=elbowEdgeStyle;rounded=0;orthogonalLoop=1;jettySize=auto;html=1;" parent="1" source="-sUA6bPn3c4p7C3POsAI-27" edge="1">
          <mxGeometry relative="1" as="geometry">
            <mxPoint x="140" y="400.0000000000002" as="targetPoint" />
          </mxGeometry>
        </mxCell>
        <mxCell id="-sUA6bPn3c4p7C3POsAI-27" value="" style="rounded=1;whiteSpace=wrap;html=1;" parent="1" vertex="1">
          <mxGeometry x="-227.5" y="315" width="180" height="30" as="geometry" />
        </mxCell>
        <mxCell id="-sUA6bPn3c4p7C3POsAI-28" value="ALB SecurityGroupId" style="text;strokeColor=none;align=center;fillColor=none;html=1;verticalAlign=middle;whiteSpace=wrap;rounded=0;" parent="1" vertex="1">
          <mxGeometry x="-197.5" y="315" width="120" height="30" as="geometry" />
        </mxCell>
        <mxCell id="-sUA6bPn3c4p7C3POsAI-29" value="" style="rounded=1;whiteSpace=wrap;html=1;fillColor=#ffe6cc;strokeColor=#d79b00;" parent="1" vertex="1">
          <mxGeometry x="-227.5" y="345" width="180" height="30" as="geometry" />
        </mxCell>
        <mxCell id="-sUA6bPn3c4p7C3POsAI-30" value="FrontendTGArn" style="text;strokeColor=none;align=center;fillColor=none;html=1;verticalAlign=middle;whiteSpace=wrap;rounded=0;" parent="1" vertex="1">
          <mxGeometry x="-192.5" y="345" width="100" height="30" as="geometry" />
        </mxCell>
        <mxCell id="-sUA6bPn3c4p7C3POsAI-47" style="edgeStyle=elbowEdgeStyle;rounded=0;orthogonalLoop=1;jettySize=auto;html=1;entryX=0.128;entryY=-0.15;entryDx=0;entryDy=0;entryPerimeter=0;" parent="1" source="-sUA6bPn3c4p7C3POsAI-31" target="-sUA6bPn3c4p7C3POsAI-2" edge="1">
          <mxGeometry relative="1" as="geometry" />
        </mxCell>
        <mxCell id="-sUA6bPn3c4p7C3POsAI-31" value="" style="rounded=1;whiteSpace=wrap;html=1;" parent="1" vertex="1">
          <mxGeometry x="-227.5" y="375" width="180" height="30" as="geometry" />
        </mxCell>
        <mxCell id="-sUA6bPn3c4p7C3POsAI-32" value="BackendTGArn" style="text;strokeColor=none;align=center;fillColor=none;html=1;verticalAlign=middle;whiteSpace=wrap;rounded=0;" parent="1" vertex="1">
          <mxGeometry x="-192.5" y="375" width="100" height="30" as="geometry" />
        </mxCell>
        <mxCell id="-sUA6bPn3c4p7C3POsAI-33" value="&lt;b&gt;Cluster exports&lt;/b&gt;" style="text;strokeColor=none;align=center;fillColor=none;html=1;verticalAlign=middle;whiteSpace=wrap;rounded=0;" parent="1" vertex="1">
          <mxGeometry x="-247.5" y="210" width="100" height="30" as="geometry" />
        </mxCell>
      </root>
    </mxGraphModel>
  </diagram>
</mxfile>
